<?xml version="1.0" encoding="UTF-8"?>
<svg width="60" height="40" viewBox="0 0 60 40" fill="none" xmlns="http://www.w3.org/2000/svg">
  <path d="M27.2 21.6C27.2 20.4 26.2 19.4 25 19.4C23.8 19.4 22.8 20.4 22.8 21.6C22.8 22.8 23.8 23.8 25 23.8C26.2 23.8 27.2 22.8 27.2 21.6Z" fill="#4285F4"/>
  <path d="M37.2 21.6C37.2 20.4 36.2 19.4 35 19.4C33.8 19.4 32.8 20.4 32.8 21.6C32.8 22.8 33.8 23.8 35 23.8C36.2 23.8 37.2 22.8 37.2 21.6Z" fill="#34A853"/>
  <path d="M32.8 16.4C32.8 15.2 31.8 14.2 30.6 14.2C29.4 14.2 28.4 15.2 28.4 16.4C28.4 17.6 29.4 18.6 30.6 18.6C31.8 18.6 32.8 17.6 32.8 16.4Z" fill="#EA4335"/>
  <path d="M32.8 26.8C32.8 25.6 31.8 24.6 30.6 24.6C29.4 24.6 28.4 25.6 28.4 26.8C28.4 28 29.4 29 30.6 29C31.8 29 32.8 28 32.8 26.8Z" fill="#FBBC05"/>
  <path d="M30 20C31.1046 20 32 20.8954 32 22C32 23.1046 31.1046 24 30 24C28.8954 24 28 23.1046 28 22C28 20.8954 28.8954 20 30 20Z" fill="#4285F4"/>
</svg> 