<?xml version="1.0" encoding="UTF-8"?>
<svg width="400" height="400" viewBox="0 0 400 400" fill="none" xmlns="http://www.w3.org/2000/svg">
  <!-- Main Rocket Body -->
  <g transform="translate(200, 200) rotate(-15)">
    <!-- Body -->
    <path d="M-30 -100 C-30 -120 30 -120 30 -100 L40 40 C40 60 -40 60 -40 40 L-30 -100" fill="#4F46E5"/>
    
    <!-- Windows -->
    <circle cx="0" cy="-40" r="15" fill="#1E1B4B"/>
    <circle cx="0" cy="-40" r="12" fill="#818CF8"/>
    <circle cx="0" cy="-40" r="8" fill="#E0E7FF"/>
    
    <!-- Small Windows -->
    <circle cx="-15" cy="0" r="8" fill="#1E1B4B"/>
    <circle cx="-15" cy="0" r="6" fill="#818CF8"/>
    <circle cx="15" cy="0" r="8" fill="#1E1B4B"/>
    <circle cx="15" cy="0" r="6" fill="#818CF8"/>
    
    <!-- Wings -->
    <path d="M-40 -20 C-60 0 -80 40 -40 60 L-40 -20" fill="#EC4899"/>
    <path d="M40 -20 C60 0 80 40 40 60 L40 -20" fill="#EC4899"/>
    
    <!-- Nose Cone -->
    <path d="M-30 -100 C-30 -130 30 -130 30 -100" fill="#F43F5E"/>
    
    <!-- Engine Details -->
    <rect x="-25" y="40" width="50" height="10" rx="5" fill="#1E1B4B"/>
  </g>

  <!-- Exhaust Effects -->
  <g transform="translate(200, 280) rotate(-15)">
    <!-- Main Exhaust -->
    <path d="M-30 0 Q0 60 30 0 T60 30 T0 80 T-60 30 T-30 0" fill="#E5E7EB" fill-opacity="0.4">
      <animate attributeName="d" 
        values="M-30 0 Q0 60 30 0 T60 30 T0 80 T-60 30 T-30 0;
                M-30 0 Q0 70 30 0 T60 40 T0 90 T-60 40 T-30 0;
                M-30 0 Q0 60 30 0 T60 30 T0 80 T-60 30 T-30 0"
        dur="2s" repeatCount="indefinite"/>
    </path>
    
    <!-- Particle Effects -->
    <g>
      <circle cx="-20" cy="40" r="3">
        <animate attributeName="opacity" values="0.6;0.2;0.6" dur="1.5s" repeatCount="indefinite"/>
        <animate attributeName="cy" values="40;60;40" dur="1.5s" repeatCount="indefinite"/>
      </circle>
      <circle cx="20" cy="50" r="2">
        <animate attributeName="opacity" values="0.6;0.2;0.6" dur="2s" repeatCount="indefinite"/>
        <animate attributeName="cy" values="50;70;50" dur="2s" repeatCount="indefinite"/>
      </circle>
      <circle cx="0" cy="45" r="2.5">
        <animate attributeName="opacity" values="0.6;0.2;0.6" dur="1.8s" repeatCount="indefinite"/>
        <animate attributeName="cy" values="45;65;45" dur="1.8s" repeatCount="indefinite"/>
      </circle>
    </g>
  </g>

  <!-- Stars/Particles -->
  <g>
    <circle cx="100" cy="100" r="3">
      <animate attributeName="opacity" values="0.8;0.3;0.8" dur="2s" repeatCount="indefinite"/>
    </circle>
    <circle cx="300" cy="150" r="2">
      <animate attributeName="opacity" values="0.8;0.3;0.8" dur="1.5s" repeatCount="indefinite"/>
    </circle>
    <circle cx="150" cy="300" r="4">
      <animate attributeName="opacity" values="0.8;0.3;0.8" dur="2.5s" repeatCount="indefinite"/>
    </circle>
    <circle cx="250" cy="250" r="3">
      <animate attributeName="opacity" values="0.8;0.3;0.8" dur="1.8s" repeatCount="indefinite"/>
    </circle>
  </g>
  
  <!-- Small Decorative Elements -->
  <g>
    <circle cx="120" cy="180" r="1.5" fill="#E5E7EB">
      <animate attributeName="opacity" values="1;0.5;1" dur="2s" repeatCount="indefinite"/>
    </circle>
    <circle cx="280" cy="220" r="1.5" fill="#E5E7EB">
      <animate attributeName="opacity" values="1;0.5;1" dur="1.7s" repeatCount="indefinite"/>
    </circle>
    <circle cx="180" cy="120" r="1.5" fill="#E5E7EB">
      <animate attributeName="opacity" values="1;0.5;1" dur="2.2s" repeatCount="indefinite"/>
    </circle>
  </g>
</svg> 