<?xml version="1.0" encoding="UTF-8"?>
<svg width="60" height="40" viewBox="0 0 60 40" fill="none" xmlns="http://www.w3.org/2000/svg">
  <path d="M21.9574 26H18.9826L20.9097 14H23.8845L21.9574 26Z" fill="#1434CB"/>
  <path d="M33.3845 14.3066C32.7845 14.0934 31.8251 13.8666 30.6345 13.8666C27.4726 13.8666 25.2157 15.5466 25.2022 17.9066C25.1891 19.6666 26.8157 20.6534 28.0595 21.2534C29.3314 21.8666 29.7845 22.2666 29.7845 22.8C29.7845 23.6 28.7845 23.96 27.8522 23.96C26.5937 23.96 25.9128 23.7866 24.8454 23.3466L24.4062 23.1466L23.9397 25.6666C24.6605 25.9466 25.9805 26.1866 27.3574 26.2C30.7174 26.2 32.9314 24.5466 32.9451 22.0666C32.9574 20.6666 32.0605 19.6 30.1468 18.7066C29.0091 18.1466 28.3174 17.7734 28.3174 17.2C28.3174 16.6934 28.9314 16.1466 30.2174 16.1466C31.2851 16.1334 32.0745 16.3466 32.6874 16.5734L32.9982 16.7066L33.4514 14.2934L33.3845 14.3066Z" fill="#1434CB"/>
  <path d="M38.4688 14H40.8151C41.2688 14 41.6417 14.1066 41.7755 14.5466L43.0474 21.3866L45.9688 14H49.0151L44.4822 26H41.4354L39.2354 15.8666C38.1417 15.3066 36.8822 14.8666 35.4688 14.5466L35.5222 14H38.4688Z" fill="#1434CB"/>
  <path d="M14.7688 14L11.9688 22.2666L11.6354 20.8666L10.5688 15.2C10.4354 14.4666 9.86878 14.0666 9.20212 14H4.03545L4.00879 14.2C5.46878 14.5866 6.78878 15.1466 7.96878 15.8666L10.5688 26H13.6354L18.4354 14H14.7688Z" fill="#1434CB"/>
</svg> 